#!OML:ASF E:\motion texture\Top Level 1\Subject 1\Session 1\male.ASF
:FULLY-SPECIFIED
:DEGREES
206
root 27.928 17.0312 16.2828 20.6222 -27.9553 -3.67151
lowerback 17.2311 -2.8645 -1.85914
upperback 3.07771 -4.0586 1.00758
thorax -6.12912 -1.94696 3.01859
lowerneck -6.57908 -7.19258 -12.5876
upperneck -6.45383 -8.68173 10.2693
head 0.16186 -4.18516 4.87671
rclavicle 3.93594e-014 -2.78299e-014
rhumerus 14.2112 16.4998 -71.7398
rradius 84.8207
rwrist 9.89976
rhand -16.3131 -17.8568
rfingers 7.12502
rthumb 9.89806 -47.6041
lclavicle 3.93594e-014 -2.78299e-014
lhumerus 34.1157 -20.7367 86.5818
lradius 55.0015
lwrist 5.54599
lhand -11.4836 33.5325
lfingers 7.12502
lthumb 14.5546 63.0019
rfemur -46.051 -4.47311 19.2247
rtibia 54.4508
rfoot -5.94028 -14.2048
rtoes 0.599777
lfemur -37.9994 9.60646 -29.6549
ltibia 42.2989
lfoot -18.9973 -5.56329
ltoes 9.47306
207
root 27.8369 17.0177 16.4682 20.3575 -27.1828 -3.15765
lowerback 17.5692 -3.00099 -1.89239
upperback 3.19845 -4.24746 0.986877
thorax -6.16981 -2.03774 3.07293
lowerneck -6.35602 -7.25763 -12.5643
upperneck -6.56862 -8.79137 10.3274
head 0.107534 -4.24584 4.8954
rclavicle -2.90226e-014 -3.57812e-014
rhumerus 15.1707 15.4154 -71.4116
rradius 85.0721
rwrist 9.72458
rhand -16.4764 -18.1056
rfingers 7.12502
rthumb 9.74054 -47.8603
lclavicle -2.90226e-014 -3.57812e-014
lhumerus 34.8606 -21.2526 86.7065
lradius 54.6402
lwrist 5.96105
lhand -11.3492 33.3842
lfingers 7.12502
lthumb 14.6841 62.8442
rfemur -47.491 -4.75449 19.1467
rtibia 53.5241
rfoot -5.89213 -13.7938
rtoes -0.123894
lfemur -37.187 9.4993 -30.0376
ltibia 42.4225
lfoot -19.4717 -6.09972
ltoes 9.43819
208
root 27.7452 17.0021 16.6552 20.1076 -26.4192 -2.65296
lowerback 17.8975 -3.14142 -1.91468
upperback 3.3183 -4.43898 0.967523
thorax -6.20592 -2.12995 3.12371
lowerneck -6.15457 -7.31989 -12.5417
upperneck -6.6687 -8.89505 10.3824
head 0.0601416 -4.30317 4.91266
rclavicle -3.49861e-014 1.98785e-014
rhumerus 16.148 14.3146 -71.1381
rradius 85.2801
rwrist 9.53057
rhand -16.7142 -18.4017
rfingers 7.12502
rthumb 9.5111 -48.167
lclavicle -3.49861e-014 1.98785e-014
lhumerus 35.5936 -21.7712 86.8324
lradius 54.2723
lwrist 6.37049
lhand -11.2112 33.2323
lfingers 7.12502
lthumb 14.8171 62.6826
rfemur -48.8669 -5.02918 19.0627
rtibia 52.4815
rfoot -5.66515 -13.3737
rtoes -0.897948
lfemur -36.3822 9.40941 -30.3973
ltibia 42.573
lfoot -19.9269 -6.64056
ltoes 9.37808
209
root 27.6528 16.9843 16.8438 19.8707 -25.6654 -2.15511
lowerback 18.2148 -3.27825 -1.93335
upperback 3.43667 -4.62446 0.951381
thorax -6.23736 -2.21922 3.17498
lowerneck -5.96266 -7.38259 -12.5186
upperneck -6.75966 -8.99838 10.4362
head 0.0168163 -4.36022 4.9291
rclavicle -8.46823e-014 2.38542e-015
rhumerus 17.1308 13.1925 -70.9096
rradius 85.4428
rwrist 9.31683
rhand -17.0416 -18.7578
rfingers 7.12502
rthumb 9.19518 -48.5373
lclavicle -8.46823e-014 2.38542e-015
lhumerus 36.3127 -22.3077 86.9703
lradius 53.8967
lwrist 6.77664
lhand -11.1002 33.0941
lfingers 7.12502
lthumb 14.924 62.5364
rfemur -50.1775 -5.30233 18.9753
rtibia 51.3412
rfoot -5.26951 -12.9409
rtoes -1.70091
lfemur -35.5862 9.33737 -30.7354
ltibia 42.7529
lfoot -20.3577 -7.19328
ltoes 9.29381
210
root 27.5596 16.9642 17.0342 19.6455 -24.9232 -1.66331
lowerback 18.5212 -3.40951 -1.95097
upperback 3.55356 -4.80184 0.937987
thorax -6.26419 -2.30454 3.22713
lowerneck -5.77818 -7.44623 -12.4915
upperneck -6.84324 -9.10242 10.4866
head -0.0234429 -4.41761 4.94359
rclavicle 7.35503e-014 -7.95139e-015
rhumerus 18.112 12.0449 -70.7375
rradius 85.5533
rwrist 9.09844
rhand -17.4531 -19.1733
rfingers 7.12502
rthumb 8.79813 -48.9699
lclavicle 7.35503e-014 -7.95139e-015
lhumerus 37.0165 -22.8623 87.1253
lradius 53.5101
lwrist 7.17767
lhand -11.0067 32.9664
lfingers 7.12502
lthumb 15.014 62.4021
rfemur -51.4214 -5.57687 18.89
rtibia 50.1219
rfoot -4.71772 -12.4956
rtoes -2.48976
lfemur -34.8 9.2838 -31.0507
ltibia 42.9645
lfoot -20.7596 -7.7617
ltoes 9.17853
